<?xml version="1.0" standalone="no"?>
<!DOCTYPE svg PUBLIC "-//W3C//DTD SVG 20010904//EN"
 "http://www.w3.org/TR/2001/REC-SVG-20010904/DTD/svg10.dtd">
<svg version="1.0" xmlns="http://www.w3.org/2000/svg"
 width="1200.000000pt" height="1200.000000pt" viewBox="0 0 1200.000000 1200.000000"
 preserveAspectRatio="xMidYMid meet">

<g transform="translate(0.000000,1200.000000) scale(0.100000,-0.100000)"
fill="#000000" stroke="none">
<path d="M4677 9533 c-4 -3 -7 -13 -7 -21 0 -8 -31 -78 -69 -156 -82 -167
-168 -285 -320 -439 -93 -96 -293 -265 -324 -276 -6 -2 -18 -10 -25 -18 -53
-53 -581 -363 -619 -363 -7 0 -13 -4 -13 -9 0 -5 -10 -13 -22 -17 -12 -3 -72
-30 -132 -59 -61 -29 -160 -74 -221 -100 -164 -71 -253 -117 -325 -170 -90
-66 -291 -274 -352 -365 -28 -41 -68 -88 -89 -105 -118 -91 -256 -339 -273
-490 -9 -76 -40 -130 -129 -218 -69 -70 -91 -111 -83 -154 9 -45 39 -92 84
-134 52 -47 159 -119 177 -119 7 0 1 22 -17 56 -33 68 -34 74 -8 102 32 34 68
28 125 -24 85 -76 205 -116 255 -84 18 11 15 13 -39 29 -103 30 -128 105 -71
217 16 32 39 70 49 84 17 21 22 23 45 12 14 -6 35 -26 46 -44 17 -29 20 -30
27 -12 4 10 8 52 8 92 0 39 4 72 9 72 4 0 26 -18 49 -40 22 -22 43 -38 46 -34
3 3 6 37 6 75 0 64 1 68 20 63 27 -9 55 -34 55 -51 0 -8 6 -13 13 -10 13 4 15
97 3 134 -7 19 -4 23 27 28 56 11 96 -4 143 -50 49 -50 81 -108 118 -219 66
-199 53 -350 -39 -436 l-27 -25 -24 30 c-13 17 -24 38 -24 48 0 9 -6 17 -14
17 -29 0 -36 -72 -10 -101 14 -16 13 -18 -15 -24 -34 -7 -91 24 -91 51 0 8 -4
14 -9 14 -5 0 -5 -16 1 -37 11 -42 12 -61 3 -113 -7 -41 23 -83 67 -94 20 -4
30 -15 36 -39 7 -27 14 -33 40 -35 31 -3 32 -2 26 27 -6 29 -5 31 23 31 17 0
43 -6 59 -14 29 -14 54 -19 87 -17 14 1 10 8 -19 35 -46 42 -33 52 50 36 62
-13 116 -6 123 16 2 6 -23 15 -54 22 -83 17 -92 25 -73 59 12 22 27 30 63 37
57 11 60 21 8 30 l-39 6 -1 97 c-1 54 -6 126 -12 161 -6 36 -9 112 -7 171 8
163 61 282 171 383 l51 46 -20 44 c-42 94 -120 150 -210 152 -107 1 -139 -42
-139 -191 0 -111 -9 -118 -31 -26 -31 130 30 244 156 288 58 21 80 42 80 78 0
41 -32 89 -82 123 -75 49 -98 75 -98 109 0 139 306 375 826 639 147 74 330
188 440 274 106 82 258 238 332 340 76 106 173 299 202 404 17 62 41 208 35
208 -1 0 -5 -3 -8 -7z m-2306 -2285 c-16 -29 -37 -81 -47 -116 -17 -62 -56
-112 -89 -112 -7 0 -20 -3 -29 -6 -11 -4 -9 6 9 43 14 26 39 79 56 116 25 56
39 74 77 98 25 16 47 29 49 29 2 0 -10 -24 -26 -52z m-331 -571 c0 -23 -39
-52 -51 -40 -8 8 -5 17 10 32 24 24 41 27 41 8z"/>
<path d="M3584 9465 c2 -16 9 -48 15 -70 40 -150 -30 -381 -171 -570 -76 -100
-206 -228 -331 -324 -194 -150 -329 -289 -439 -456 -61 -92 -62 -114 -6 -73
44 31 47 33 200 115 129 70 136 75 205 160 39 48 113 131 163 183 284 295 453
612 445 836 -3 76 -29 162 -61 200 l-25 29 5 -30z"/>
<path d="M3625 8103 c-11 -2 -56 -11 -99 -19 -80 -15 -240 -74 -286 -104 -14
-9 -52 -34 -85 -55 -72 -46 -162 -116 -168 -131 -4 -8 28 -14 96 -18 123 -9
234 -29 339 -62 l79 -25 31 26 c37 31 195 108 258 126 25 7 49 15 53 19 4 4
-47 10 -115 13 -126 7 -180 17 -212 40 -16 12 -17 16 -5 34 18 29 110 87 191
120 37 16 68 31 68 36 0 7 -110 8 -145 0z"/>
<path d="M4025 7845 c-143 -25 -381 -114 -449 -167 -18 -14 -16 -17 47 -47 37
-18 110 -66 162 -107 90 -70 98 -74 147 -74 63 0 261 -40 393 -79 55 -16 101
-28 103 -27 2 2 -16 17 -39 34 -79 59 -187 161 -218 209 -100 151 63 195 464
124 61 -11 120 -23 133 -26 12 -4 22 -3 22 3 0 16 -173 99 -262 126 -46 14
-112 30 -148 36 -87 13 -268 11 -355 -5z"/>
<path d="M2917 7723 c-4 -3 -7 -19 -7 -34 0 -27 26 -55 114 -122 44 -34 82
-92 91 -139 6 -32 13 -38 118 -89 155 -75 275 -157 377 -258 111 -109 160
-185 198 -308 68 -216 74 -522 16 -776 l-6 -27 158 6 c88 4 161 8 162 10 5 4
20 69 37 165 23 132 21 434 -4 580 -37 215 -101 382 -205 538 -64 96 -214 251
-242 251 -3 0 -18 8 -32 18 -114 80 -289 147 -462 177 -86 15 -301 21 -313 8z"/>
<path d="M3952 7368 c19 -24 51 -73 71 -109 43 -77 127 -266 127 -285 0 -8 35
-32 78 -53 77 -39 290 -164 345 -203 16 -11 30 -18 33 -16 2 3 -5 31 -16 63
-26 76 -26 119 1 146 18 18 28 20 67 15 55 -8 217 -85 316 -151 38 -25 71 -43
74 -41 9 10 -112 162 -193 241 -226 222 -539 372 -899 430 l-38 6 34 -43z"/>
<path d="M4205 6863 c16 -64 35 -303 35 -440 l0 -112 56 -78 c31 -43 77 -117
103 -165 42 -80 49 -88 76 -88 28 0 30 3 33 39 6 93 58 182 117 201 80 26 208
-39 361 -183 70 -66 114 -93 114 -71 0 17 -82 161 -141 249 -148 218 -349 413
-599 579 -63 42 -120 81 -127 86 -23 19 -35 11 -28 -17z"/>
<path d="M3596 6834 c-26 -64 -86 -111 -158 -125 -32 -6 -58 -16 -58 -20 0
-25 116 8 166 46 40 31 61 60 74 104 13 48 -3 45 -24 -5z"/>
<path d="M3693 6280 c-44 -40 -105 -55 -163 -41 -105 25 -97 24 -76 7 31 -26
117 -39 169 -26 43 11 117 62 117 81 0 16 -14 10 -47 -21z"/>
<path d="M4240 6220 c-1 -3 -3 -21 -6 -40 -2 -19 -13 -71 -23 -115 -11 -44
-18 -81 -17 -83 2 -1 48 -1 103 0 l101 3 -57 92 c-56 92 -99 153 -101 143z"/>
<path d="M3345 5864 c-138 -11 -277 -14 -510 -10 -176 3 -337 1 -359 -4 -48
-11 -84 -44 -96 -91 -7 -26 -4 -141 11 -395 21 -363 22 -585 3 -1119 -7 -199
0 -246 42 -289 40 -39 82 -47 304 -55 276 -10 343 6 377 87 14 33 15 58 4 207
-6 94 -11 217 -11 274 l0 104 251 -6 c139 -3 255 -10 258 -14 4 -4 3 -114 -2
-245 -11 -276 -7 -316 34 -357 46 -46 101 -53 376 -49 l243 3 36 36 c33 34 37
43 41 105 3 38 -2 143 -11 233 -20 208 -20 208 4 214 16 4 27 -15 81 -142 34
-80 81 -197 105 -260 24 -64 55 -126 70 -142 37 -39 107 -48 419 -53 434 -8
568 -7 625 5 64 13 63 13 160 0 41 -5 320 -11 620 -12 300 -1 559 -6 575 -10
33 -8 830 -23 1190 -22 140 0 246 5 272 12 71 19 98 61 143 221 l7 25 204 0
204 0 12 -40 c7 -22 17 -59 23 -83 15 -57 65 -106 125 -121 69 -17 316 -25
428 -13 112 12 150 30 179 82 33 60 21 104 -130 505 -250 664 -496 1284 -527
1325 -47 64 -45 64 -316 66 -225 2 -250 0 -278 -17 -16 -10 -36 -31 -44 -46
-8 -15 -69 -176 -135 -358 -66 -181 -163 -448 -216 -592 -53 -144 -96 -268
-96 -276 0 -10 7 -14 23 -10 17 3 19 2 7 -5 -25 -16 -120 -30 -255 -38 -109
-6 -127 -5 -120 7 27 45 369 571 434 668 99 148 109 168 117 233 6 58 -9 232
-27 303 -13 53 -58 101 -103 109 -17 3 -283 8 -591 11 -308 3 -573 8 -590 12
-16 3 -293 5 -615 4 -322 -1 -596 -2 -610 -2 -14 0 -147 1 -295 2 -235 2 -275
0 -303 -15 -32 -17 -54 -49 -66 -99 l-7 -28 -32 25 c-55 41 -137 77 -236 103
-87 24 -118 26 -331 30 -129 2 -331 0 -448 -4 -178 -7 -218 -6 -240 6 -38 21
-180 22 -407 5z m425 -114 c17 -17 20 -33 20 -102 0 -46 7 -121 15 -168 8 -47
15 -97 15 -112 l0 -28 -75 0 c-42 0 -164 7 -273 16 -257 21 -363 17 -394 -13
-27 -28 -36 -119 -16 -178 21 -63 49 -68 303 -56 116 6 241 11 278 11 l66 0
11 -37 c7 -24 10 -106 8 -221 -3 -195 -7 -210 -53 -196 -11 3 -145 8 -297 11
-253 5 -280 4 -304 -12 l-27 -17 7 -181 c4 -99 11 -237 16 -306 8 -114 8 -127
-8 -139 -24 -19 -446 -13 -481 7 l-23 13 8 392 c11 463 9 563 -13 972 -9 171
-13 318 -10 328 6 16 30 17 334 11 238 -4 379 -2 513 8 285 22 356 21 380 -3z
m1040 -29 c186 -56 322 -172 375 -321 40 -111 37 -320 -5 -432 -29 -79 -88
-156 -169 -221 l-70 -57 76 -158 c126 -261 212 -449 219 -477 4 -18 2 -30 -7
-36 -19 -12 -451 -12 -482 0 -18 7 -31 30 -57 98 -35 92 -151 376 -176 429
-21 43 -51 54 -156 54 l-91 0 6 -162 c4 -90 11 -217 17 -282 7 -86 7 -123 -1
-133 -17 -19 -467 -19 -494 1 -17 13 -19 26 -17 157 2 79 7 227 12 329 6 102
10 307 10 457 0 262 1 273 20 283 11 6 27 25 36 42 17 33 15 112 -5 238 -5 30
-10 90 -10 132 l-1 77 133 4 c72 2 274 3 447 2 295 -2 320 -3 390 -24z m917 5
c4 -4 -1 -192 -11 -419 -16 -365 -17 -462 -6 -846 9 -323 9 -436 0 -445 -7 -7
-80 -12 -213 -14 l-203 -4 -1 41 c-1 23 -20 83 -44 137 l-42 96 12 334 c8 246
16 352 28 402 26 104 23 296 -7 392 -25 82 -40 317 -22 329 14 8 501 6 509 -3z
m1264 -12 c15 -16 21 -50 35 -197 12 -130 14 -181 6 -189 -8 -8 -64 -8 -204 0
-106 7 -259 12 -339 12 -175 0 -174 1 -174 -104 0 -88 9 -122 36 -137 27 -14
357 -13 518 2 77 7 117 7 124 0 7 -7 6 -50 -2 -133 -7 -68 -16 -161 -19 -208
l-7 -85 -50 2 c-27 1 -167 5 -310 9 -317 8 -301 15 -292 -116 7 -106 10 -114
55 -137 32 -16 62 -18 237 -17 110 0 254 5 320 11 66 6 125 8 132 6 21 -8 25
-41 13 -136 -18 -152 -41 -266 -59 -286 -15 -18 -39 -18 -600 -10 -380 5 -588
12 -595 19 -7 7 -4 134 8 412 19 412 18 690 -5 1112 -5 109 -6 182 0 185 5 3
266 6 581 5 547 -1 572 -2 591 -20z m2090 7 c4 0 25 -43 48 -95 81 -185 494
-1254 582 -1505 39 -113 41 -125 26 -136 -37 -27 -420 -29 -490 -3 -22 8 -30
21 -43 67 -24 86 -43 145 -54 161 -7 12 -48 15 -220 18 -116 3 -240 1 -275 -3
-76 -8 -81 -14 -110 -133 -27 -114 -35 -119 -189 -126 l-128 -6 6 32 c20 108
29 209 30 325 l1 132 -32 33 c-18 19 -33 37 -33 41 0 4 81 229 181 499 100
271 195 531 211 577 16 46 33 94 38 106 8 22 9 22 227 20 120 -1 221 -3 224
-4z m-1156 -10 l230 -6 14 -29 c8 -18 16 -79 19 -162 l5 -133 -130 -198 c-309
-470 -503 -778 -503 -797 0 -14 416 1 530 19 52 8 100 15 107 15 21 0 24 -35
13 -176 -13 -170 -28 -260 -45 -274 -10 -8 -72 -8 -227 -1 -117 6 -361 11
-542 11 l-328 0 6 23 c13 47 46 249 52 324 4 47 2 94 -5 118 l-11 39 147 230
c315 495 365 582 342 597 -8 4 -124 6 -260 2 l-246 -6 -9 134 c-9 129 -8 240
1 267 5 13 402 15 840 3z m-4440 -470 l70 -7 -100 -7 c-337 -23 -366 -21 -351
20 6 14 24 15 159 9 83 -4 184 -11 222 -15z m3255 -20 c80 -6 82 -7 40 -14
-25 -4 -127 -8 -228 -10 -168 -2 -182 -1 -182 16 0 15 13 17 143 16 78 -1 180
-4 227 -8z m634 -23 c-9 -17 -191 -307 -311 -498 l-98 -155 -145 -12 c-159
-12 -409 -17 -434 -7 -9 3 -16 17 -16 30 l0 24 148 0 c81 0 201 -5 268 -11
112 -11 124 -11 160 7 62 31 76 66 85 217 7 125 17 228 25 272 6 31 -14 90
-37 111 -21 19 -19 19 147 24 93 3 179 7 192 8 16 1 21 -2 16 -10z m-2318
-553 c-1 -41 -9 -44 -24 -11 -7 17 -7 27 1 35 18 18 24 13 23 -24z"/>
<path d="M4333 5381 c-74 -12 -73 -9 -73 -237 0 -132 4 -205 11 -209 5 -4 63
-9 127 -12 134 -7 209 9 262 53 50 42 64 80 64 164 -1 110 -41 179 -126 214
-29 13 -198 39 -218 35 -3 -1 -24 -5 -47 -8z m174 -129 c31 -17 53 -63 53
-112 0 -83 -41 -110 -170 -110 l-80 0 0 118 c0 65 2 121 4 123 9 9 172 -8 193
-19z"/>
<path d="M8857 5089 c-34 -83 -127 -367 -129 -398 -4 -44 11 -49 145 -50 106
-1 137 8 137 40 0 44 -94 359 -125 419 l-13 24 -15 -35z m-27 -331 c0 -5 -7
-8 -15 -8 -17 0 -18 2 -9 25 5 13 8 14 15 3 5 -7 9 -16 9 -20z"/>
<path d="M9987 5816 c-56 -10 -56 -23 -2 -44 158 -62 291 -205 336 -360 58
-198 -79 -721 -262 -1002 -24 -36 -94 -115 -156 -177 l-113 -112 15 -57 c15
-58 13 -88 -12 -136 l-14 -28 89 0 89 0 115 123 c231 245 314 355 403 534 108
218 140 363 132 598 -4 113 -11 169 -27 225 -12 41 -23 82 -25 91 -6 29 -48
123 -73 163 -97 156 -276 222 -495 182z"/>
<path d="M9690 5764 c-69 -13 -247 -87 -274 -114 -22 -22 9 -22 76 -1 143 46
218 31 198 -40 -5 -17 -11 -33 -12 -34 -2 -1 -24 -13 -50 -28 -25 -15 -64 -47
-85 -71 -37 -42 -109 -173 -100 -183 3 -2 18 10 35 26 57 58 110 52 161 -19
l29 -41 -30 -32 c-57 -62 -108 -188 -124 -304 -5 -42 -2 -65 16 -112 l22 -60
22 25 c26 31 92 42 136 24 23 -9 29 -17 24 -29 -42 -98 -49 -213 -20 -336 17
-77 57 -185 67 -185 4 0 9 18 12 41 10 76 58 99 122 59 l33 -20 23 36 23 37
-77 151 c-86 170 -106 226 -137 376 -18 84 -21 126 -17 210 7 124 35 269 65
326 27 53 104 121 153 136 81 24 168 -33 238 -155 38 -67 50 -69 24 -6 -53
135 -143 243 -242 292 -61 30 -73 32 -176 34 -60 1 -121 -1 -135 -3z"/>
<path d="M9955 5541 c-54 -34 -103 -107 -121 -182 -36 -148 -40 -284 -14 -453
15 -98 71 -255 119 -334 40 -64 84 -122 95 -122 3 0 35 57 72 126 l67 127 -13
51 c-7 28 -15 60 -16 71 -2 11 -10 52 -19 90 -34 158 -36 271 -5 290 15 9 64
-21 97 -59 17 -20 33 -36 37 -36 11 0 7 74 -9 164 -19 111 -59 191 -122 245
-41 35 -55 41 -93 41 -27 0 -57 -8 -75 -19z"/>
<path d="M1945 4670 c-16 -25 59 -122 118 -152 52 -26 167 -38 167 -16 0 10
-9 13 -33 10 -82 -9 -180 46 -217 122 -23 49 -26 51 -35 36z"/>
<path d="M3289 4518 c-12 -24 -30 -55 -40 -70 -11 -14 -19 -31 -19 -38 0 -18
83 45 123 93 36 44 36 45 14 51 -44 12 -57 6 -78 -36z"/>
<path d="M2196 4266 c-48 -73 -118 -211 -145 -283 l-19 -53 149 0 c82 0 149 4
149 8 0 5 -11 14 -25 20 -46 21 -58 64 -64 223 l-6 146 -39 -61z"/>
<path d="M1606 4061 c-9 -15 92 -100 132 -111 54 -15 117 -12 160 6 43 19 27
31 -20 15 -78 -27 -169 -2 -225 62 -35 40 -39 42 -47 28z"/>
</g>
</svg>
